<?xml version="1.0" encoding="utf-8"?>
<svg width="449px" height="110px" viewBox="0 0 449 110" version="1.1" xmlns:xlink="http://www.w3.org/1999/xlink" xmlns="http://www.w3.org/2000/svg">
  <defs>
    <filter id="filter_1">
      <feColorMatrix in="SourceGraphic" type="matrix" values="0 0 0 0 0 0 0 0 0 0 0 0 0 0 0 0 0 0 1 0" />
    </filter>
    <path d="M0 0L449 0C449 0 449 25.5 449 53C449 80.5 449 110 449 110L0 110L0 0Z" id="path_1" />
    <clipPath id="mask_1">
      <use xlink:href="#path_1" />
    </clipPath>
  </defs>
  <g id="wwdc20_logo_vector__e15y2cnpph8i_large" filter="url(#filter_1)">
    <path d="M0 0L449 0C449 0 449 25.5 449 53C449 80.5 449 110 449 110L0 110L0 0Z" id="Background" fill="none" fill-rule="evenodd" stroke="none" />
    <g clip-path="url(#mask_1)">
      <path d="M130.65 102.42L116.99 102.42L96.75 26.59L111.78 26.59L124.39 83.03L124.81 83.03L139.68 26.59L152.24 26.59L167.06 83.03L167.48 83.03L180.15 26.59L195.13 26.59L174.9 102.42L161.29 102.42L146.21 48.82L145.68 48.82L130.65 102.42L130.65 102.42Z" id="Shape" fill="#FFFFFF" stroke="none" />
      <path d="M231.84 102.42L218.18 102.42L197.95 26.59L212.98 26.59L225.59 83.03L226.01 83.03L240.88 26.59L253.44 26.59L268.26 83.03L268.68 83.03L281.35 26.59L296.33 26.59L276.1 102.42L262.49 102.42L247.41 48.82L246.88 48.82L231.84 102.42L231.84 102.42Z" id="Shape" fill="#FFFFFF" stroke="none" />
      <path d="M331.77 26.59C354.47 26.59 367.82 40.25 367.82 64.27C367.82 88.34 354.47 102.42 331.77 102.42L303.55 102.42L303.55 26.59L331.77 26.59L331.77 26.59ZM318.05 90.34L330.14 90.34C344.96 90.34 353.05 81.25 353.05 64.33C353.05 47.78 344.8 38.68 330.14 38.68L318.05 38.68L318.05 90.34L318.05 90.34Z" id="Shape" fill="#FFFFFF" fill-rule="evenodd" stroke="none" />
      <path d="M374.47 64.48C374.47 40.2 388.24 25.33 409.94 25.33C427.86 25.33 441.42 36.52 442.89 53.08L428.75 53.08C427.07 43.67 419.55 37.47 409.94 37.47C397.38 37.47 389.23 47.93 389.23 64.48C389.23 81.14 397.27 91.55 409.99 91.55C419.82 91.55 426.86 86.08 428.75 77.05L442.94 77.05C440.79 93.55 428.17 103.69 409.94 103.69C388.13 103.69 374.47 88.87 374.47 64.48L374.47 64.48Z" id="Shape" fill="#FFFFFF" stroke="none" />
      <path d="M60.98 20.97C64.38 16.71 66.69 10.99 66.09 5.15002C61.1 5.40002 55.02 8.44002 51.5 12.7C48.34 16.35 45.54 22.31 46.27 27.9C51.86 28.39 57.45 25.11 60.98 20.97" id="Shape" fill="#FFFFFF" stroke="none" />
      <path d="M66.02 29C57.9 28.52 50.99 33.61 47.11 33.61C43.23 33.61 37.29 29.24 30.86 29.36C22.5 29.48 14.73 34.21 10.49 41.73C1.75998 56.78 8.18998 79.1 16.68 91.35C20.8 97.41 25.77 104.09 32.32 103.85C38.51 103.61 40.93 99.84 48.45 99.84C55.96 99.84 58.15 103.85 64.7 103.72C71.49 103.6 75.74 97.65 79.86 91.59C84.59 84.68 86.53 78.01 86.65 77.64C86.53 77.52 73.56 72.54 73.44 57.62C73.3 45.14 83.6 39.19 84.09 38.82C78.27 30.22 69.17 29.24 66.02 29" id="Shape" fill="#FFFFFF" stroke="none" />
    </g>
  </g>
</svg>